<?xml version="1.0" encoding="UTF-8"?>
<!DOCTYPE svg PUBLIC "-//W3C//DTD SVG 1.1//EN" "http://www.w3.org/Graphics/SVG/1.1/DTD/svg11.dtd">
<svg xmlns="http://www.w3.org/2000/svg" version="1.1" width="26px" height="26px" style="shape-rendering:geometricPrecision; text-rendering:geometricPrecision; image-rendering:optimizeQuality; fill-rule:evenodd; clip-rule:evenodd" xmlns:xlink="http://www.w3.org/1999/xlink">
<g><path style="opacity:0.807" fill="#000000" d="M -0.5,3.5 C 8.16667,3.5 16.8333,3.5 25.5,3.5C 25.5,9.5 25.5,15.5 25.5,21.5C 16.8333,21.5 8.16667,21.5 -0.5,21.5C -0.5,15.5 -0.5,9.5 -0.5,3.5 Z M 2.5,6.5 C 4.70086,8.5037 6.70086,10.837 8.5,13.5C 9.31416,11.2338 9.81416,8.90049 10,6.5C 10.6667,10.5 10.6667,14.5 10,18.5C 8.33333,16.1667 6.66667,13.8333 5,11.5C 4.81416,13.9005 4.31416,16.2338 3.5,18.5C 2.50909,14.5546 2.17575,10.5546 2.5,6.5 Z M 16.5,6.5 C 18.7224,6.17798 20.5557,6.84464 22,8.5C 22.8236,11.8823 22.657,15.2156 21.5,18.5C 20.5713,17.3112 20.238,15.9778 20.5,14.5C 18.8333,14.5 17.1667,14.5 15.5,14.5C 14.306,16.9777 14.1393,14.9777 15,8.5C 15.7172,7.9558 16.2172,7.28913 16.5,6.5 Z"/></g>
<g><path style="opacity:0.638" fill="#000000" d="M 17.5,7.5 C 20.0838,8.0483 21.0838,9.71497 20.5,12.5C 18.8333,12.5 17.1667,12.5 15.5,12.5C 15.3915,10.4862 16.0582,8.81953 17.5,7.5 Z"/></g>
</svg>
