<?xml version="1.0" encoding="UTF-8"?>
<svg version="1.1" xmlns="http://www.w3.org/2000/svg" width="48" height="48">
<path d="M0 0 C0.99 0.33 1.98 0.66 3 1 C3.75877483 2.78383667 4.43519749 4.60329607 5.0625 6.4375 C6.78066793 10.67081164 6.78066793 10.67081164 10.40625 13.13671875 C12.95465868 13.60517623 15.41610155 13.84034449 18 14 C19.34034769 14.30390286 20.67713716 14.62727652 22 15 C21.61783498 17.54958664 21.34743448 18.70884012 19.3359375 20.39453125 C18.68882813 20.86246094 18.04171875 21.33039062 17.375 21.8125 C14.42515486 24.54005539 14.01950246 25.68987893 13.76171875 29.7890625 C13.95566397 33.55848171 14.42884443 37.2706901 15 41 C11.25537166 40.51019629 8.53121029 39.99673401 5.4375 37.8125 C2.24583709 35.65719464 2.24583709 35.65719464 -0.5625 36.5625 C-1.366875 37.036875 -2.17125 37.51125 -3 38 C-8.65384615 41 -8.65384615 41 -13 41 C-12.835 40.01 -12.67 39.02 -12.5 38 C-11.28286186 30.37608979 -11.28286186 30.37608979 -13.71484375 23.328125 C-15.88254124 21.23142728 -15.88254124 21.23142728 -18.21484375 19.515625 C-18.80394531 19.01546875 -19.39304687 18.5153125 -20 18 C-20 17.01 -20 16.02 -20 15 C-19.16855469 14.89042969 -18.33710938 14.78085937 -17.48046875 14.66796875 C-16.39378906 14.50941406 -15.30710937 14.35085937 -14.1875 14.1875 C-13.10855469 14.03667969 -12.02960937 13.88585938 -10.91796875 13.73046875 C-7.81209653 12.95296125 -6.85523904 12.53398503 -5 10 C-4.04969568 8.30015988 -3.15596017 6.567809 -2.3125 4.8125 C-1.87550781 3.91144531 -1.43851563 3.01039062 -0.98828125 2.08203125 C-0.66214844 1.39496094 -0.33601563 0.70789063 0 0 Z " fill="#FFBE19" transform="translate(23,2)"/>
<path d="M0 0 C0.99 0.33 1.98 0.66 3 1 C3.75877483 2.78383667 4.43519749 4.60329607 5.0625 6.4375 C6.78066793 10.67081164 6.78066793 10.67081164 10.40625 13.13671875 C12.95465868 13.60517623 15.41610155 13.84034449 18 14 C19.34034769 14.30390286 20.67713716 14.62727652 22 15 C21.61783498 17.54958664 21.34743448 18.70884012 19.3359375 20.39453125 C18.68882813 20.86246094 18.04171875 21.33039062 17.375 21.8125 C14.42515486 24.54005539 14.01950246 25.68987893 13.76171875 29.7890625 C13.95566397 33.55848171 14.42884443 37.2706901 15 41 C11.25537166 40.51019629 8.53121029 39.99673401 5.4375 37.8125 C2.24583709 35.65719464 2.24583709 35.65719464 -0.5625 36.5625 C-1.366875 37.036875 -2.17125 37.51125 -3 38 C-8.65384615 41 -8.65384615 41 -13 41 C-12.835 40.01 -12.67 39.02 -12.5 38 C-11.28286186 30.37608979 -11.28286186 30.37608979 -13.71484375 23.328125 C-15.88254124 21.23142728 -15.88254124 21.23142728 -18.21484375 19.515625 C-18.80394531 19.01546875 -19.39304687 18.5153125 -20 18 C-20 17.01 -20 16.02 -20 15 C-19.16855469 14.89042969 -18.33710938 14.78085937 -17.48046875 14.66796875 C-16.39378906 14.50941406 -15.30710937 14.35085937 -14.1875 14.1875 C-13.10855469 14.03667969 -12.02960937 13.88585938 -10.91796875 13.73046875 C-7.81209653 12.95296125 -6.85523904 12.53398503 -5 10 C-4.04969568 8.30015988 -3.15596017 6.567809 -2.3125 4.8125 C-1.87550781 3.91144531 -1.43851563 3.01039062 -0.98828125 2.08203125 C-0.66214844 1.39496094 -0.33601563 0.70789063 0 0 Z M0 5 C-0.66 6.093125 -1.32 7.18625 -2 8.3125 C-2.37125 8.92738281 -2.7425 9.54226562 -3.125 10.17578125 C-4.21623999 12.11361926 -4.21623999 12.11361926 -4 15 C-7.63 15.33 -11.26 15.66 -15 16 C-15.33 16.99 -15.66 17.98 -16 19 C-12.90672105 21.97675459 -12.90672105 21.97675459 -9 23 C-9.33 27.95 -9.66 32.9 -10 38 C-6.13327129 37.34126508 -6.13327129 37.34126508 -4.125 35.4375 C-1.21834173 33.47123117 0.54957986 33.57749957 4 34 C8.63235294 36.26470588 8.63235294 36.26470588 10 39 C11.485 38.505 11.485 38.505 13 38 C12.93039063 37.14277344 12.86078125 36.28554688 12.7890625 35.40234375 C12.2919383 24.90355399 12.2919383 24.90355399 16 20.8125 C16.556875 20.30332031 17.11375 19.79414063 17.6875 19.26953125 C18.120625 18.85058594 18.55375 18.43164062 19 18 C19 17.34 19 16.68 19 16 C16.35541621 14.67770811 14.32238699 14.90322806 11.375 14.9375 C9.87066406 14.95103516 9.87066406 14.95103516 8.3359375 14.96484375 C7.17964844 14.98224609 7.17964844 14.98224609 6 15 C5.81824219 14.36191406 5.63648437 13.72382813 5.44921875 13.06640625 C5.19785156 12.24011719 4.94648438 11.41382813 4.6875 10.5625 C4.32205078 9.32693359 4.32205078 9.32693359 3.94921875 8.06640625 C3.63597656 7.38449219 3.32273437 6.70257812 3 6 C2.01 5.67 1.02 5.34 0 5 Z " fill="#FFD62D" transform="translate(23,2)"/>
<path d="M0 0 C1.32 0 2.64 0 4 0 C4.33 2.64 4.66 5.28 5 8 C7.31 8.33 9.62 8.66 12 9 C11.6875 10.9375 11.6875 10.9375 11 13 C10.01 13.33 9.02 13.66 8 14 C8.33 16.64 8.66 19.28 9 22 C8.40832031 21.98839844 7.81664062 21.97679688 7.20703125 21.96484375 C6.41683594 21.95582031 5.62664063 21.94679688 4.8125 21.9375 C3.64654297 21.92009766 3.64654297 21.92009766 2.45703125 21.90234375 C-0.12112711 22.00481427 -2.48655731 22.43302447 -5 23 C-5.13277344 22.32453125 -5.26554687 21.6490625 -5.40234375 20.953125 C-5.57894531 20.06109375 -5.75554688 19.1690625 -5.9375 18.25 C-6.11152344 17.36828125 -6.28554687 16.4865625 -6.46484375 15.578125 C-6.92368488 13.36764947 -7.43336074 11.18487932 -8 9 C-4.535 8.505 -4.535 8.505 -1 8 C-0.67 5.36 -0.34 2.72 0 0 Z " fill="#FFA401" transform="translate(22,11)"/>
<path d="M0 0 C0.33 0.66 0.66 1.32 1 2 C3.35599235 2.46751788 3.35599235 2.46751788 6.0625 2.625 C7.44115234 2.73714844 7.44115234 2.73714844 8.84765625 2.8515625 C9.55792969 2.90054687 10.26820312 2.94953125 11 3 C9.99483407 5.24229322 9.24800301 6.78969816 7.35546875 8.39453125 C5.71930086 9.99381225 5.71930086 9.99381225 5.92578125 12.69921875 C6.05339844 13.68535156 6.18101563 14.67148437 6.3125 15.6875 C6.43238281 16.68136719 6.55226563 17.67523438 6.67578125 18.69921875 C6.78277344 19.45847656 6.88976562 20.21773437 7 21 C5.1875 21.625 5.1875 21.625 3 22 C2.01 21.34 1.02 20.68 0 20 C-4.45843134 19.60369499 -7.83998439 20.41523215 -12 22 C-12.28571429 13.42857143 -12.28571429 13.42857143 -10 10 C-9.67 12.31 -9.34 14.62 -9 17 C-8.154375 16.814375 -7.30875 16.62875 -6.4375 16.4375 C-2.7226718 15.96470368 0.32974273 16.33935369 4 17 C3.67 14.36 3.34 11.72 3 9 C3.99 8.34 4.98 7.68 6 7 C6.33 6.01 6.66 5.02 7 4 C4.69 3.67 2.38 3.34 0 3 C0 2.01 0 1.02 0 0 Z " fill="#FFBA16" transform="translate(27,16)"/>
<path d="M0 0 C6.75 -0.125 6.75 -0.125 9 1 C7.88659211 3.50516775 6.82371717 5.18963759 4.9375 7.21875 C2.52150261 10.68687529 2.58127049 12.63644464 2.75 16.8125 C2.78609375 17.97394531 2.8221875 19.13539062 2.859375 20.33203125 C2.90578125 21.21246094 2.9521875 22.09289062 3 23 C2.01 23.33 1.02 23.66 0 24 C-1 21 -1 21 -0.5 18.75 C0.20432734 15.86855375 0.20432734 15.86855375 -0.75 12.5 C-1 9 -1 9 1.375 6.25 C2.24125 5.5075 3.1075 4.765 4 4 C4.33 3.01 4.66 2.02 5 1 C3.35 1 1.7 1 0 1 C0 0.67 0 0.34 0 0 Z " fill="#FFC822" transform="translate(33,17)"/>
<path d="M0 0 C0.33 0.66 0.66 1.32 1 2 C3.35599235 2.46751788 3.35599235 2.46751788 6.0625 2.625 C7.44115234 2.73714844 7.44115234 2.73714844 8.84765625 2.8515625 C9.55792969 2.90054687 10.26820312 2.94953125 11 3 C10.01056869 5.20719293 9.21092502 6.80574066 7.41796875 8.45703125 C5.53736993 10.50341288 5.51095174 11.94886598 5.3125 14.6875 C5.24675781 15.49574219 5.18101563 16.30398437 5.11328125 17.13671875 C5.07589844 17.75160156 5.03851563 18.36648437 5 19 C4.01 18.67 3.02 18.34 2 18 C2.165 17.2575 2.33 16.515 2.5 15.75 C3.11925696 12.80993422 3.11925696 12.80993422 3 9 C3.99 8.34 4.98 7.68 6 7 C6.33 6.01 6.66 5.02 7 4 C4.69 3.67 2.38 3.34 0 3 C0 2.01 0 1.02 0 0 Z " fill="#FFB00C" transform="translate(27,16)"/>
<path d="M0 0 C0.66 0.33 1.32 0.66 2 1 C2 4.63 2 8.26 2 12 C2.66 12.33 3.32 12.66 4 13 C3.34 13.66 2.68 14.32 2 15 C1.01 15 0.02 15 -1 15 C-0.67 10.05 -0.34 5.1 0 0 Z " fill="#FFC51F" transform="translate(14,25)"/>
<path d="M0 0 C0.33 0.66 0.66 1.32 1 2 C0.67 2.99 0.34 3.98 0 5 C-2.31 5.33 -4.62 5.66 -7 6 C-7 6.99 -7 7.98 -7 9 C-7.66 9 -8.32 9 -9 9 C-8.67 7.35 -8.34 5.7 -8 4 C-5.69 4 -3.38 4 -1 4 C-0.67 2.68 -0.34 1.36 0 0 Z " fill="#FFB00D" transform="translate(21,14)"/>
</svg>
